<?xml version="1.0" encoding="utf-8"?>
<!-- Generator: Adobe Illustrator 23.0.0, SVG Export Plug-In . SVG Version: 6.00 Build 0)  -->
<svg version="1.1" id="Layer_1" xmlns="http://www.w3.org/2000/svg" xmlns:xlink="http://www.w3.org/1999/xlink" x="0px" y="0px"
	 viewBox="0 0 100 100" style="enable-background:new 0 0 100 100;" xml:space="preserve">
<style type="text/css">
	.st0{fill:#00A69C;}
</style>
<g id="Group_444" transform="translate(0 0)">
	<path id="Path_703" class="st0" d="M77,72c-0.2,0-0.4,0-0.6,0c-1.3,0-2.5-0.7-3.2-1.9c-0.3-0.5-6.6-11.4-8.6-14.9
		c-0.1-0.2-0.2-0.3-0.3-0.5h0c-1.1,0.1-7.6,0.1-8.7,0.1c-1.7-0.1-3.3-0.6-4.8-1.5l-0.1-0.1c-1.8-0.9-2.6-3.1-1.7-5
		c0.4-0.7,1-1.3,1.7-1.7l0.1-0.1c1.4-0.9,3.1-1.4,4.7-1.5c1.1,0,7.6,0,8.7,0h0c0.1-0.2,0.2-0.3,0.3-0.5c2-3.5,8.2-14.4,8.6-14.9
		c0.7-1.1,1.9-1.8,3.2-1.9c1.2-0.1,2.4,0.1,3.6,0.5c1.6,0.5,2.6,2.1,2.3,3.8c0,0.3-0.2,0.9-1.3,5c-0.7,2.5-1.6,6-1.9,7.6
		c2.2,0.1,6.2,0.4,6.5,0.4c0.1,0,0.2,0,0.2-0.1c0.2-0.3,0.3-0.7,0.4-1c0.1-0.4,0.3-0.7,0.5-1.1c0.6-1.4,2-2.2,3.5-2.2
		c0.6,0,1.2,0,1.7,0.1c1.7,0.1,3,1.5,3,3.2l0,0c0,1.2,0,10.5,0,11.7l0,0c0,1.7-1.3,3.1-3,3.2c-0.6,0.1-1.2,0.1-1.7,0.1h-0.1
		c-1.5,0-2.8-0.9-3.4-2.2c-0.2-0.4-0.3-0.8-0.5-1.1c-0.1-0.3-0.3-0.6-0.4-0.9c0-0.1-0.1-0.2-0.2-0.1c-0.3,0-4.3,0.3-6.5,0.4
		c0.4,1.5,1.3,5.1,1.9,7.6c1.1,4.1,1.2,4.7,1.3,5c0.3,1.7-0.7,3.3-2.3,3.8C79.1,71.9,78.1,72,77,72z M64.3,51.8c0.9,0,1.7,0.3,2.3,1
		l0.1,0.2c0.1,0.2,0.3,0.4,0.4,0.6l0.1,0.1c3.2,5.6,8.1,14.2,8.5,14.8c0.2,0.3,0.5,0.5,0.8,0.5h0.1c0.8,0.1,1.6-0.1,2.4-0.3l0.1,0
		c0.2-0.1,0.3-0.1,0.3-0.5c-0.1-0.4-0.7-2.7-1.2-4.7c-1.5-5.6-2.1-8.1-2.2-8.6c-0.1-1.3,0.8-2.5,2.1-2.6c0,0,0.1,0,0.1,0
		c0.3,0,6.9-0.5,7.3-0.5c1.3-0.1,2.5,0.7,3.1,1.8c0.2,0.4,0.3,0.7,0.5,1.1c0.1,0.3,0.3,0.6,0.4,0.9c0.1,0.3,0.4,0.5,0.7,0.5h0.1
		c0.5,0,1,0,1.4-0.1c0.1,0,0.2,0,0.2-0.1c0-0.1,0-0.1,0-0.2v-0.1c0-0.8,0-10.6,0-11.4v-0.1c0-0.1,0-0.1,0-0.2l0,0
		c-0.1,0-0.1,0-0.2,0c-0.5,0-1-0.1-1.4-0.1h-0.1c-0.3,0-0.6,0.2-0.7,0.5c-0.2,0.3-0.3,0.6-0.4,1c-0.1,0.4-0.3,0.7-0.5,1.1
		c-0.6,1.2-1.8,1.9-3.1,1.8c-0.4,0-7-0.5-7.3-0.5c-1.3-0.1-2.3-1.2-2.2-2.5c0,0,0-0.1,0-0.1c0.1-0.6,0.7-3,2.2-8.6
		c0.5-2,1.1-4.3,1.2-4.7c0.1-0.4-0.1-0.5-0.3-0.5l-0.1,0c-0.8-0.3-1.6-0.4-2.4-0.3h-0.1c-0.3,0-0.6,0.2-0.8,0.5
		c-0.3,0.5-5.2,9.1-8.5,14.7l-0.1,0.1c-0.2,0.2-0.3,0.4-0.4,0.6l-0.1,0.2c-0.6,0.6-1.4,1-2.3,1h-0.1h-0.1c-0.5,0-7.1-0.1-8.4,0
		c-1.2,0.1-2.3,0.4-3.3,1c-0.7,0.5-0.7,0.8-0.7,0.8s0.1,0.3,0.7,0.8c1,0.6,2.1,0.9,3.3,1c1.2,0,7.8,0,8.4,0L64.3,51.8z"/>
	<path id="Path_705" d="M47.7,92.6C24.1,92.6,5,73.6,5,50C5,26.5,24.1,7.4,47.7,7.4C58,7.4,68.1,11.1,75.8,18
		c0.6,0.5,0.7,1.5,0.2,2.1c-0.5,0.6-1.5,0.7-2.1,0.2c0,0,0,0-0.1-0.1C57.4,5.8,32.4,7.4,17.9,23.8S5,65.3,21.5,79.7
		C36.5,93,59,92.9,74,79.6c0.7-0.5,1.6-0.4,2.1,0.3c0.5,0.6,0.4,1.4-0.1,2C68.2,88.8,58.1,92.6,47.7,92.6z"/>
	<path id="Path_706" d="M49,92.3c-6.4,0-12.3-4.5-16.7-12.7c-8.7-18.7-8.7-40.4,0-59.1C36.8,12.2,42.7,7.7,49,7.7
		c0.8,0,1.5,0.7,1.5,1.5c0,0.8-0.7,1.5-1.5,1.5l0,0c-11.1,0-20.2,17.6-20.2,39.3S37.9,89.3,49,89.3c0.8,0,1.5,0.7,1.5,1.5
		C50.5,91.6,49.9,92.3,49,92.3L49,92.3z"/>
	<path id="Path_707" d="M54.2,28.7H15.5c-0.8,0-1.5-0.7-1.5-1.5c0-0.8,0.7-1.5,1.5-1.5h38.7c0.8,0,1.5,0.7,1.5,1.5
		C55.7,28,55,28.7,54.2,28.7z"/>
	<path id="Path_708" d="M37.7,51H7.6c-0.8,0-1.5-0.7-1.5-1.5S6.8,48,7.6,48h30.1c0.8,0,1.5,0.7,1.5,1.5S38.6,51,37.7,51z"/>
	<path id="Path_709" d="M52.7,73.5H14c-0.8,0-1.5-0.7-1.5-1.5s0.7-1.5,1.5-1.5h38.7c0.8,0,1.5,0.7,1.5,1.5S53.6,73.5,52.7,73.5z"/>
</g>
</svg>
