<?xml version="1.0" encoding="utf-8"?>
<!-- Generator: Adobe Illustrator 23.0.0, SVG Export Plug-In . SVG Version: 6.00 Build 0)  -->
<svg version="1.1" id="Layer_1" xmlns="http://www.w3.org/2000/svg" xmlns:xlink="http://www.w3.org/1999/xlink" x="0px" y="0px"
	 viewBox="0 0 100 100" style="enable-background:new 0 0 100 100;" xml:space="preserve">
<style type="text/css">
	.st0{fill:#00A69C;}
</style>
<g id="Group_443" transform="translate(0 0)">
	<path id="Path_702" class="st0" d="M77.4,73.5c-0.2,0-0.4,0-0.5,0c-1.3,0-2.4-0.7-3.1-1.8c-0.3-0.5-6.2-10.8-8.1-14.1
		c-0.1-0.2-0.2-0.3-0.3-0.5h0c-1,0.1-7.1,0.1-8.2,0c-1.6-0.1-3.1-0.6-4.5-1.4l-0.1,0c-1.7-0.9-2.5-3-1.6-4.7
		c0.3-0.7,0.9-1.3,1.6-1.6l0.1,0c1.4-0.8,2.9-1.3,4.5-1.4c1.1,0,7.2,0,8.2,0h0c0.1-0.1,0.2-0.3,0.3-0.5c1.9-3.3,7.8-13.6,8.1-14.1
		c0.7-1.1,1.8-1.7,3.1-1.8c1.1-0.1,2.3,0.1,3.4,0.5c1.5,0.5,2.5,2,2.2,3.6c0,0.3-0.2,0.9-1.2,4.7c-0.6,2.4-1.5,5.7-1.8,7.2
		c2.1,0.1,5.9,0.4,6.2,0.4c0.1,0,0.2,0,0.2-0.1c0.2-0.3,0.3-0.6,0.4-0.9c0.1-0.3,0.3-0.7,0.5-1.1c0.6-1.3,1.9-2.1,3.3-2.1
		c0.5,0,1.1,0,1.6,0.1c1.6,0.1,2.9,1.4,2.8,3l0,0c0,1.2,0,9.9,0,11.1l0,0c0,1.6-1.2,2.9-2.8,3c-0.5,0.1-1.1,0.1-1.6,0.1h-0.1
		c-1.4,0-2.6-0.8-3.2-2.1c-0.2-0.4-0.3-0.7-0.5-1.1c-0.1-0.3-0.2-0.6-0.4-0.9c0-0.1-0.1-0.1-0.2-0.1c-0.3,0-4.1,0.3-6.2,0.4
		c0.3,1.4,1.2,4.8,1.8,7.2c1,3.9,1.2,4.5,1.2,4.7c0.3,1.6-0.6,3.1-2.2,3.6C79.4,73.3,78.4,73.5,77.4,73.5z M65.4,54.3
		c0.8,0,1.6,0.3,2.1,0.9l0.1,0.2c0.1,0.2,0.3,0.4,0.4,0.6l0.1,0.1c3.1,5.3,7.7,13.5,8,14c0.2,0.3,0.4,0.5,0.7,0.5H77
		c0.8,0.1,1.5,0,2.2-0.3l0.1,0c0.2,0,0.3-0.1,0.3-0.5c-0.1-0.4-0.6-2.5-1.1-4.4c-1.4-5.3-2-7.6-2-8.2c-0.1-1.2,0.8-2.4,2-2.5
		c0,0,0.1,0,0.1,0c0.3,0,6.5-0.4,6.9-0.5c1.2-0.1,2.4,0.6,2.9,1.7c0.2,0.4,0.3,0.7,0.5,1.1c0.1,0.3,0.2,0.6,0.4,0.9
		c0.2,0.3,0.4,0.5,0.7,0.5h0.1c0.4,0,0.9,0,1.3-0.1c0.1,0,0.1,0,0.2-0.1c0-0.1,0-0.1,0-0.2V58c0-0.8,0-10.1,0-10.8v-0.1
		c0-0.1,0-0.1,0-0.2l0,0c-0.1,0-0.1,0-0.2,0c-0.4,0-0.9-0.1-1.3-0.1h-0.1c-0.3,0-0.6,0.2-0.7,0.5c-0.2,0.3-0.3,0.6-0.4,0.9
		c-0.1,0.3-0.3,0.7-0.5,1.1c-0.5,1.1-1.7,1.8-2.9,1.7c-0.4,0-6.6-0.4-6.9-0.5c-1.2-0.1-2.2-1.2-2.1-2.4c0,0,0-0.1,0-0.1
		c0.1-0.6,0.7-2.9,2-8.2c0.5-1.9,1.1-4.1,1.1-4.4c0.1-0.4-0.1-0.4-0.3-0.5l-0.1,0c-0.7-0.3-1.5-0.4-2.2-0.3h-0.1
		c-0.3,0-0.6,0.2-0.8,0.5c-0.3,0.5-5,8.6-8,14l-0.1,0.1c-0.2,0.2-0.3,0.4-0.4,0.6L67.5,50c-0.5,0.6-1.3,1-2.1,0.9h-0.1h-0.1
		c-0.5,0-6.7-0.1-7.9,0c-1.1,0.1-2.2,0.4-3.1,1c-0.7,0.5-0.7,0.7-0.7,0.8c0,0.1,0.1,0.3,0.7,0.8c1,0.6,2,0.9,3.1,1
		c1.2,0,7.4,0,7.9,0L65.4,54.3z"/>
	<g id="Group_11">
		<path id="Path_704" d="M74.5,85.5c-0.5,0-0.9,0-1.5,0c-3.6-0.3-7-1.8-9.6-4.4c-1.5-1.4-3.3-2.5-5.3-3.3c-1.5-0.3-3.1-0.2-4.5,0.2
			c-1.6,0.4-3.3,0.5-5,0.4c-3.4-0.5-6.6-2-9.3-4.2c-1.6-1.5-2.9-3.2-4-5c-2.2-3.3-4.3-6.3-7.4-6.3l0,0c-4.9,0.6-6.4-3.7-7.5-6.9
			c-0.4-1.5-1.1-2.8-1.9-4.1c-0.6-0.7-1.4-1.2-2.2-1.7c-1.3-0.8-2.4-1.8-3.3-3c-1.2-1.6-1.6-3.7-0.9-5.7c0.2-0.7,0.3-1.5,0.3-2.3
			c-0.5-2.7-1.5-5.3-2.9-7.7c-1.8-3-3-6.4-3.4-9.9c0-0.4-0.1-0.8-0.2-1.2c-0.3-1.6-0.9-4.4,2-5.7c2.3-0.9,3.7,0.8,4.6,2
			c1,1.3,1.7,2,2.9,1.9c1.7-0.2,3.2-1,4.3-2.3c1.1-1.1,2.7-2.6,4.8-1.4c1.3,1,2,2.6,2,4.2c0,0.6,0.1,1.2,0.3,1.7
			c1.7,3.2,4.6,5.6,8.1,6.7c5.5,1.9,8.7,0.2,12.7-2c2.2-1.2,4.4-2.2,6.8-3c6.7-2.1,12,0.3,17.7,3.3c0.7,0.4,1,1.2,0.6,1.9
			c-0.4,0.7-1.2,1-1.9,0.6c-5.4-2.8-9.9-4.8-15.6-3.1c-2.2,0.7-4.3,1.7-6.3,2.8c-4.3,2.3-8.3,4.4-15,2.1c-4.2-1.3-7.7-4.2-9.7-8
			c-0.4-0.9-0.6-1.8-0.7-2.7c-0.1-0.8-0.2-1.9-0.6-2.1c-0.1,0-0.1-0.1-0.2-0.1c-0.5,0.3-0.9,0.6-1.2,1c-1.5,1.8-3.7,2.9-6.1,3.1
			c-2.2,0-4.2-1.2-5.3-3c-0.9-1.2-1.1-1.2-1.3-1.2c-0.6,0.2-0.8,0.5-0.3,2.5c0.1,0.5,0.2,1.1,0.3,1.6c0.4,3.1,1.5,6.1,3.1,8.8
			c1.6,2.7,2.7,5.6,3.2,8.7c0.1,1.1,0,2.2-0.4,3.3c-0.5,1.1-0.2,2.4,0.6,3.4c0.7,0.9,1.5,1.6,2.5,2.1c1,0.6,1.9,1.4,2.7,2.2
			c1.1,1.5,1.9,3.2,2.4,5c1.3,3.7,2.2,5.4,4.5,5l0.2,0H28c4.7,0,7.4,4,9.8,7.6c1,1.6,2.2,3.1,3.5,4.4c2.2,1.9,4.9,3.1,7.8,3.6
			c1.4,0.1,2.7,0,4-0.4c1.9-0.6,4-0.6,6-0.1c2.3,0.8,4.4,2.1,6.2,3.8c2.1,2.2,4.9,3.5,8,3.7c5.4,0.3,6.7-0.9,8.9-5.8
			c0.3-0.7,1.2-1.1,1.9-0.7c0.7,0.3,1.1,1.2,0.7,1.9c0,0,0,0,0,0C82.4,83.2,80.4,85.5,74.5,85.5z"/>
	</g>
</g>
</svg>
