<?xml version="1.0" encoding="UTF-8"?>
<svg xmlns="http://www.w3.org/2000/svg" xmlns:xlink="http://www.w3.org/1999/xlink" width="300px" height="85px" viewBox="0 0 299 85" version="1.1">
<g id="logo">
<path style=" stroke:none;fill-rule:evenodd;fill:rgb(0%,65.098039%,57.647059%);fill-opacity:1;" d="M 15.378906 30.214844 C 11.324219 34.90625 3.054688 44.292969 1.105469 55.050781 C -0.894531 65.804688 0.210938 75.296875 6.902344 80.570312 C 17.910156 89.21875 29.074219 83.734375 34.183594 77.566406 L 54.671875 52.835938 C 63.308594 42.394531 69.207031 36.382812 84.164062 31.53125 C 100.175781 26.363281 119.820312 26.101562 129.300781 14.078125 C 132.832031 10.441406 134.777344 5.800781 135.09375 0 C 122.140625 5.800781 88.800781 -2.265625 64.679688 30.742188 L 32.761719 74.347656 C 26.441406 82.996094 13.328125 82.734375 7.480469 76.351562 C 2.265625 70.65625 4.054688 62.75 7.902344 55.839844 C 11.167969 49.933594 15.484375 45.769531 21.753906 41.605469 C 27.230469 37.964844 33.128906 34.0625 35.605469 28.527344 C 37.027344 25.308594 36.816406 15.503906 34.234375 14.976562 C 31.65625 14.449219 21.910156 15.292969 18.960938 17.191406 C 16.277344 18.878906 16.589844 21.460938 16.589844 24.414062 C 16.589844 26.207031 16.644531 28.789062 15.378906 30.214844 Z M 15.378906 30.214844 "/>
<path style=" stroke:none;fill-rule:evenodd;fill:rgb(0%,65.098039%,57.647059%);fill-opacity:1;" d="M 35.605469 81.308594 L 55.882812 56 C 62.519531 47.71875 70.417969 39.546875 85.375 34.695312 C 91.011719 32.851562 97.070312 31.636719 103.019531 30.320312 L 111.078125 29.054688 C 108.917969 40.917969 100.914062 47.507812 87.007812 49.355469 C 75.527344 50.882812 64.992188 54.945312 55.722656 62.011719 C 48.296875 67.652344 42.292969 75.5625 36.078125 82.996094 C 34.078125 85.316406 33.550781 83.894531 35.605469 81.308594 Z M 35.605469 81.308594 "/>
<path style=" stroke:none;fill-rule:evenodd;fill:rgb(0%,65.098039%,57.647059%);fill-opacity:1;" d="M 51.773438 70.128906 C 46.191406 77.355469 49.929688 87.214844 60.304688 83.894531 C 65.46875 82.257812 66.996094 77.988281 69.101562 73.347656 C 71.417969 68.179688 78.003906 65.859375 84.691406 70.128906 C 82.953125 63.488281 76.476562 61.113281 71.734375 61.0625 C 63.203125 60.902344 56.199219 64.382812 51.773438 70.128906 Z M 51.773438 70.128906 "/>
<path style=" stroke:none;fill-rule:nonzero;fill:rgb(0%,65.098039%,57.647059%);fill-opacity:1;" d="M 123.085938 61.007812 L 132.25 61.007812 L 133.566406 75.402344 L 139.308594 61.007812 L 148.472656 61.007812 L 144.839844 84.632812 L 139.152344 84.632812 L 141.941406 66.597656 L 134.777344 84.632812 L 129.617188 84.632812 L 127.984375 66.597656 L 125.195312 84.632812 L 119.503906 84.632812 Z M 156.375 73.03125 L 150.472656 72.34375 C 150.84375 71.238281 151.316406 70.394531 151.84375 69.761719 C 152.371094 69.128906 153.054688 68.601562 153.949219 68.125 C 154.582031 67.808594 155.425781 67.546875 156.425781 67.335938 C 157.480469 67.175781 158.585938 67.070312 159.742188 67.070312 C 161.640625 67.070312 163.113281 67.175781 164.222656 67.386719 C 165.328125 67.597656 166.222656 68.074219 166.855469 68.757812 C 167.328125 69.234375 167.644531 69.917969 167.800781 70.816406 C 167.960938 71.710938 168.011719 72.554688 167.855469 73.347656 L 166.695312 80.886719 C 166.589844 81.679688 166.539062 82.3125 166.539062 82.785156 C 166.589844 83.261719 166.695312 83.839844 166.90625 84.527344 L 161.007812 84.527344 C 160.851562 84.105469 160.746094 83.734375 160.691406 83.523438 C 160.640625 83.3125 160.640625 82.945312 160.640625 82.417969 C 159.691406 83.261719 158.796875 83.839844 157.902344 84.210938 C 156.742188 84.683594 155.371094 84.894531 153.949219 84.894531 C 152 84.894531 150.578125 84.421875 149.738281 83.472656 C 148.894531 82.523438 148.527344 81.363281 148.734375 79.992188 C 148.945312 78.671875 149.472656 77.617188 150.316406 76.773438 C 151.160156 75.929688 152.632812 75.296875 154.636719 74.929688 C 157.058594 74.453125 158.636719 74.085938 159.375 73.875 C 160.113281 73.664062 160.902344 73.398438 161.691406 73.082031 C 161.796875 72.292969 161.746094 71.710938 161.480469 71.394531 C 161.21875 71.078125 160.691406 70.921875 159.847656 70.921875 C 158.847656 70.921875 158.007812 71.078125 157.480469 71.449219 C 157.164062 71.816406 156.742188 72.292969 156.375 73.03125 Z M 161.269531 76.511719 C 160.375 76.828125 159.429688 77.144531 158.425781 77.355469 C 157.109375 77.722656 156.214844 78.039062 155.847656 78.410156 C 155.425781 78.777344 155.214844 79.148438 155.109375 79.621094 C 155.003906 80.148438 155.160156 80.570312 155.425781 80.886719 C 155.742188 81.203125 156.214844 81.363281 156.847656 81.363281 C 157.53125 81.363281 158.214844 81.203125 158.902344 80.835938 C 159.535156 80.464844 160.058594 80.042969 160.375 79.515625 C 160.691406 78.988281 160.957031 78.355469 161.0625 77.511719 Z M 173.542969 61.007812 L 179.8125 61.007812 L 178.492188 69.707031 C 179.496094 68.757812 180.441406 68.125 181.339844 67.703125 C 182.234375 67.28125 183.285156 67.125 184.445312 67.125 C 186.128906 67.125 187.394531 67.652344 188.238281 68.757812 C 189.027344 69.867188 189.289062 71.5 188.921875 73.769531 L 187.238281 84.632812 L 180.917969 84.632812 L 182.339844 75.191406 C 182.496094 74.136719 182.445312 73.347656 182.128906 72.925781 C 181.8125 72.449219 181.339844 72.238281 180.652344 72.238281 C 179.914062 72.238281 179.230469 72.554688 178.652344 73.136719 C 178.074219 73.714844 177.703125 74.824219 177.441406 76.351562 L 176.175781 84.578125 L 169.910156 84.578125 Z M 198.457031 73.03125 L 192.554688 72.34375 C 192.976562 71.238281 193.398438 70.394531 193.925781 69.761719 C 194.453125 69.128906 195.136719 68.601562 196.03125 68.125 C 196.664062 67.808594 197.507812 67.546875 198.507812 67.335938 C 199.5625 67.175781 200.613281 67.070312 201.824219 67.070312 C 203.722656 67.070312 205.195312 67.175781 206.300781 67.386719 C 207.410156 67.597656 208.304688 68.074219 208.9375 68.757812 C 209.410156 69.234375 209.726562 69.917969 209.882812 70.816406 C 210.042969 71.710938 210.09375 72.554688 209.9375 73.347656 L 208.777344 80.886719 C 208.671875 81.679688 208.621094 82.3125 208.621094 82.785156 C 208.671875 83.261719 208.777344 83.839844 208.988281 84.527344 L 203.089844 84.527344 C 202.933594 84.105469 202.828125 83.734375 202.773438 83.523438 C 202.722656 83.3125 202.722656 82.945312 202.722656 82.417969 C 201.773438 83.261719 200.878906 83.839844 199.984375 84.210938 C 198.824219 84.683594 197.453125 84.894531 196.03125 84.894531 C 194.082031 84.894531 192.660156 84.421875 191.820312 83.472656 C 190.976562 82.523438 190.609375 81.363281 190.816406 79.992188 C 191.027344 78.671875 191.554688 77.617188 192.398438 76.773438 C 193.242188 75.929688 194.714844 75.296875 196.71875 74.929688 C 199.140625 74.453125 200.71875 74.085938 201.457031 73.875 C 202.195312 73.664062 202.984375 73.398438 203.773438 73.082031 C 203.878906 72.292969 203.828125 71.710938 203.5625 71.394531 C 203.300781 71.078125 202.773438 70.921875 201.929688 70.921875 C 200.929688 70.921875 200.085938 71.078125 199.5625 71.449219 C 199.191406 71.816406 198.824219 72.292969 198.457031 73.03125 Z M 203.351562 76.511719 C 202.457031 76.828125 201.511719 77.144531 200.507812 77.355469 C 199.191406 77.722656 198.296875 78.039062 197.929688 78.410156 C 197.507812 78.777344 197.296875 79.148438 197.191406 79.621094 C 197.085938 80.148438 197.242188 80.570312 197.507812 80.886719 C 197.824219 81.203125 198.296875 81.363281 198.929688 81.363281 C 199.613281 81.363281 200.296875 81.203125 200.984375 80.835938 C 201.617188 80.464844 202.140625 80.042969 202.457031 79.515625 C 202.773438 78.988281 203.039062 78.355469 203.144531 77.511719 Z M 214.625 67.492188 L 220.46875 67.492188 L 220.050781 70.289062 C 221.101562 69.128906 222.101562 68.335938 223.050781 67.863281 C 224 67.386719 225.15625 67.125 226.421875 67.125 C 228.160156 67.125 229.425781 67.652344 230.265625 68.757812 C 231.058594 69.8125 231.320312 71.5 230.953125 73.769531 L 229.265625 84.632812 L 222.945312 84.632812 L 224.367188 75.191406 C 224.527344 74.136719 224.472656 73.347656 224.15625 72.925781 C 223.839844 72.449219 223.367188 72.238281 222.683594 72.238281 C 221.945312 72.238281 221.261719 72.554688 220.679688 73.136719 C 220.101562 73.714844 219.734375 74.824219 219.46875 76.351562 L 218.207031 84.578125 L 211.9375 84.578125 Z M 258.445312 80.730469 L 250.492188 80.730469 L 248.804688 84.632812 L 241.695312 84.632812 L 253.808594 61.007812 L 261.394531 61.007812 L 266.238281 84.632812 L 258.917969 84.632812 Z M 257.757812 75.613281 L 256.546875 67.125 L 252.757812 75.613281 Z M 271.925781 61.007812 L 278.195312 61.007812 L 277.511719 65.488281 L 271.242188 65.488281 Z M 270.925781 67.492188 L 277.195312 67.492188 L 274.5625 84.632812 L 268.292969 84.632812 C 268.292969 84.632812 270.925781 67.492188 270.925781 67.492188 Z M 281.25 67.492188 L 287.097656 67.492188 L 286.675781 70.289062 C 287.410156 69.074219 288.148438 68.230469 288.78125 67.808594 C 289.464844 67.335938 290.203125 67.125 291.097656 67.125 C 292.046875 67.125 292.996094 67.441406 293.996094 68.019531 L 291.363281 72.714844 C 290.675781 72.398438 290.097656 72.238281 289.675781 72.238281 C 288.832031 72.238281 288.148438 72.609375 287.621094 73.292969 C 286.832031 74.296875 286.199219 76.140625 285.777344 78.882812 L 284.882812 84.632812 L 278.5625 84.632812 Z M 281.25 67.492188 "/>
<path style=" stroke:none;fill-rule:nonzero;fill:rgb(0%,65.098039%,57.647059%);fill-opacity:1;" d="M 286.359375 34.960938 C 286.886719 34.589844 287.359375 34.222656 287.886719 33.851562 C 288.570312 33.0625 289.359375 32.007812 290.257812 30.636719 C 290.359375 30.425781 290.941406 29.371094 291.941406 27.367188 C 292.363281 26.574219 292.835938 26.152344 293.46875 26.152344 C 293.730469 26.152344 294.152344 26.257812 294.628906 26.46875 C 295.101562 26.679688 295.46875 26.785156 295.785156 26.785156 C 296.628906 26.785156 297.367188 26.363281 297.945312 25.574219 C 298.523438 24.78125 298.839844 23.886719 298.839844 22.832031 C 298.839844 22.515625 298.683594 22.09375 298.3125 21.671875 C 298 21.199219 297.683594 20.988281 297.523438 20.988281 C 297.367188 20.988281 297.15625 21.199219 296.945312 21.566406 C 296.523438 22.355469 296.261719 22.832031 296.15625 22.882812 C 295.945312 22.621094 295.734375 22.355469 295.417969 22.199219 C 294.996094 21.933594 294.574219 21.777344 294.207031 21.777344 C 293.679688 21.777344 293.152344 22.039062 292.625 22.566406 C 292.308594 22.882812 292.046875 23.253906 291.785156 23.726562 C 291.519531 24.148438 291.257812 24.78125 290.886719 25.625 C 290.519531 26.46875 290.308594 27.050781 290.152344 27.367188 C 289.886719 27.945312 289.625 28.316406 289.359375 28.578125 C 289.253906 28.683594 288.992188 28.894531 288.519531 29.316406 C 287.726562 29.949219 287.199219 30.53125 286.9375 31.058594 C 286.675781 31.585938 286.570312 32.113281 286.570312 32.691406 Z M 286.359375 34.960938 "/>
<path style=" stroke:none;fill-rule:evenodd;fill:rgb(0%,65.098039%,57.647059%);fill-opacity:1;" d="M 294.046875 37.28125 C 293.679688 37.859375 293.363281 38.492188 293.046875 39.125 C 292.046875 40.867188 292.257812 41.816406 292.363281 42.34375 C 292.363281 42.394531 292.519531 43.132812 293.046875 42.449219 C 293.785156 41.550781 295.046875 42.550781 295.152344 43.078125 C 295.679688 45.292969 293.363281 46.980469 291.308594 45.664062 C 290.941406 45.398438 290.625 44.871094 290.464844 44.503906 C 290.152344 43.660156 290.414062 41.816406 291.46875 40.023438 C 292.46875 38.175781 293.417969 37.386719 294.046875 37.28125 Z M 294.046875 37.28125 "/>
<path style=" stroke:none;fill-rule:nonzero;fill:rgb(0%,65.098039%,57.647059%);fill-opacity:1;" d="M 287.675781 34.539062 C 287.570312 34.855469 287.464844 35.117188 287.359375 35.328125 C 287.253906 35.539062 287.042969 35.910156 286.78125 36.382812 C 286.464844 36.859375 286.148438 37.386719 285.777344 37.914062 C 285.09375 38.96875 284.566406 39.601562 284.199219 39.8125 C 283.832031 40.023438 283.304688 40.285156 282.617188 40.496094 C 282.304688 40.601562 281.617188 40.867188 280.511719 41.234375 L 277.246094 42.078125 C 276.984375 42.132812 276.71875 42.183594 276.457031 42.183594 C 276.140625 42.238281 275.984375 42.183594 275.929688 42.132812 C 275.878906 42.027344 276.089844 41.867188 276.507812 41.605469 C 276.929688 41.339844 277.195312 41.183594 277.300781 41.128906 C 277.40625 41.078125 278.140625 40.601562 279.5625 39.757812 C 280.460938 39.230469 281.195312 38.703125 281.882812 38.230469 C 283.25 37.226562 284.199219 36.4375 284.777344 35.804688 C 285.515625 35.011719 285.882812 34.378906 285.882812 33.851562 C 285.671875 33.957031 285.464844 34.011719 285.199219 34.011719 C 284.9375 34.0625 284.621094 34.0625 284.25 34.0625 C 283.515625 33.957031 282.933594 33.746094 282.515625 33.484375 C 281.882812 33.0625 281.566406 32.535156 281.566406 31.902344 C 281.566406 31.425781 281.988281 30.214844 282.882812 28.316406 C 283.144531 27.734375 283.460938 27.15625 283.9375 26.628906 C 284.515625 25.890625 285.09375 25.46875 285.570312 25.46875 C 286.359375 25.46875 287.042969 25.730469 287.621094 26.3125 C 288.359375 27.101562 288.730469 27.839844 288.730469 28.683594 C 288.78125 28.949219 288.78125 29.421875 288.78125 30.003906 C 288.78125 30.425781 288.78125 30.847656 288.730469 31.214844 C 288.730469 31.585938 288.625 31.953125 288.570312 32.324219 C 288.464844 32.691406 288.359375 33.007812 288.253906 33.324219 C 287.992188 33.800781 287.832031 34.167969 287.675781 34.539062 Z M 287.675781 34.539062 "/>
<path style=" stroke:none;fill-rule:nonzero;fill:rgb(0%,65.098039%,57.647059%);fill-opacity:1;" d="M 276.507812 13.605469 C 276.613281 13.339844 276.71875 13.023438 276.929688 12.601562 C 276.984375 12.496094 277.035156 12.390625 277.195312 12.179688 C 277.351562 12.339844 277.40625 12.496094 277.457031 12.65625 L 277.457031 14.710938 L 277.5625 18.085938 L 277.667969 23.515625 C 277.667969 24.730469 277.617188 25.730469 277.511719 26.574219 C 277.40625 27.367188 277.246094 28.261719 276.984375 29.160156 L 276.035156 32.21875 C 275.613281 33.324219 275.246094 34.117188 275.035156 34.484375 C 274.824219 34.855469 274.613281 35.066406 274.402344 35.117188 L 274.140625 34.75 C 274.296875 33.640625 274.457031 32.535156 274.5625 31.480469 C 274.667969 30.425781 274.769531 29.582031 274.824219 29.054688 C 274.929688 27.15625 274.980469 25.519531 274.929688 24.042969 C 274.875 22.621094 274.824219 21.300781 274.769531 20.195312 L 275.140625 18.246094 Z M 276.507812 13.605469 "/>
<path style=" stroke:none;fill-rule:nonzero;fill:rgb(0%,65.098039%,57.647059%);fill-opacity:1;" d="M 267.1875 17.347656 C 267.398438 17.402344 267.660156 17.453125 267.925781 17.613281 C 268.242188 17.71875 268.398438 17.769531 268.503906 17.769531 C 268.871094 17.769531 269.1875 17.664062 269.453125 17.402344 C 269.714844 17.136719 270.03125 16.769531 270.347656 16.242188 C 270.664062 15.714844 270.925781 15.449219 271.085938 15.503906 C 271.347656 15.609375 271.402344 15.976562 271.136719 16.714844 C 270.875 17.296875 270.714844 17.664062 270.664062 17.875 C 270.398438 18.402344 270.136719 18.824219 269.875 19.195312 C 268.820312 20.566406 267.925781 21.25 267.238281 21.25 C 267.1875 21.25 267.1875 17.347656 267.1875 17.347656 Z M 267.1875 17.347656 "/>
<path style=" stroke:none;fill-rule:nonzero;fill:rgb(0%,65.098039%,57.647059%);fill-opacity:1;" d="M 266.082031 50.25 C 266.082031 50.777344 266.027344 51.148438 265.921875 51.410156 C 265.816406 51.675781 265.660156 51.992188 265.34375 52.414062 C 264.5 53.519531 263.867188 54.101562 263.34375 54.101562 C 263.238281 54.101562 263.027344 53.941406 262.710938 53.625 C 262.394531 53.308594 262.132812 53.046875 261.867188 52.730469 C 261.023438 51.992188 260.550781 51.515625 260.550781 51.359375 C 260.550781 51.199219 260.761719 50.777344 261.183594 49.988281 C 261.5 49.460938 261.761719 49.039062 261.867188 48.773438 C 262.238281 48.140625 262.445312 47.71875 262.550781 47.507812 C 262.921875 46.980469 263.132812 46.71875 263.238281 46.71875 C 263.289062 46.71875 263.449219 46.769531 263.660156 46.929688 C 263.867188 47.085938 264.078125 47.246094 264.34375 47.507812 C 265.027344 48.140625 265.449219 48.667969 265.660156 49.039062 C 265.976562 49.460938 266.082031 49.828125 266.082031 50.25 Z M 263.554688 43.449219 C 263.554688 43.976562 263.5 44.34375 263.394531 44.554688 C 263.289062 44.820312 263.132812 45.136719 262.816406 45.558594 C 261.972656 46.664062 261.339844 47.246094 260.8125 47.246094 C 260.710938 47.246094 260.5 47.085938 260.183594 46.769531 C 259.867188 46.453125 259.601562 46.191406 259.339844 45.875 C 258.496094 45.136719 258.023438 44.660156 258.023438 44.503906 C 258.023438 44.34375 258.234375 43.921875 258.65625 43.132812 C 258.972656 42.605469 259.234375 42.183594 259.339844 41.921875 C 259.707031 41.289062 259.917969 40.867188 260.023438 40.65625 C 260.394531 40.128906 260.605469 39.863281 260.710938 39.863281 C 260.761719 39.863281 260.917969 39.917969 261.128906 40.074219 C 261.339844 40.234375 261.550781 40.390625 261.816406 40.65625 C 262.5 41.289062 262.921875 41.816406 263.132812 42.183594 C 263.5 42.65625 263.554688 43.078125 263.554688 43.449219 Z M 268.925781 43.449219 C 268.925781 43.976562 268.871094 44.34375 268.765625 44.554688 C 268.660156 44.820312 268.503906 45.136719 268.1875 45.558594 C 267.34375 46.664062 266.714844 47.246094 266.1875 47.246094 C 266.082031 47.246094 265.871094 47.085938 265.554688 46.769531 C 265.238281 46.453125 264.976562 46.191406 264.710938 45.875 C 263.867188 45.136719 263.394531 44.660156 263.394531 44.503906 C 263.394531 44.34375 263.605469 43.921875 264.027344 43.132812 C 264.34375 42.605469 264.605469 42.183594 264.710938 41.921875 C 265.082031 41.289062 265.292969 40.867188 265.398438 40.65625 C 265.765625 40.128906 265.976562 39.863281 266.082031 39.863281 C 266.132812 39.863281 266.292969 39.917969 266.503906 40.074219 C 266.714844 40.234375 266.925781 40.390625 267.1875 40.65625 C 267.871094 41.289062 268.292969 41.816406 268.503906 42.183594 C 268.820312 42.65625 268.925781 43.078125 268.925781 43.449219 Z M 268.925781 43.449219 "/>
<path style=" stroke:none;fill-rule:nonzero;fill:rgb(0%,65.098039%,57.647059%);fill-opacity:1;" d="M 267.292969 21.144531 C 266.976562 21.144531 266.660156 21.039062 266.34375 20.828125 C 266.027344 20.617188 265.765625 20.511719 265.449219 20.460938 C 264.976562 20.355469 264.449219 20.566406 263.867188 20.988281 C 263.289062 21.40625 263.027344 21.828125 263.027344 22.25 L 260.550781 23.570312 C 260.65625 23.148438 260.867188 22.671875 261.128906 22.144531 C 261.289062 21.828125 261.5 21.40625 261.816406 20.933594 C 262.5 19.878906 263.289062 18.984375 264.183594 18.296875 C 265.082031 17.558594 265.921875 17.191406 266.609375 17.191406 L 267.1875 17.242188 C 267.292969 17.507812 267.34375 17.824219 267.398438 18.191406 C 267.449219 18.5625 267.503906 18.878906 267.503906 19.089844 C 267.503906 19.511719 267.449219 19.933594 267.398438 20.300781 C 267.449219 20.671875 267.34375 20.988281 267.292969 21.144531 Z M 267.292969 21.144531 "/>
<path style=" stroke:none;fill-rule:nonzero;fill:rgb(0%,65.098039%,57.647059%);fill-opacity:1;" d="M 250.492188 47.5625 C 250.542969 47.929688 250.542969 48.300781 250.386719 48.722656 C 250.28125 49.144531 250.070312 49.566406 249.808594 50.09375 C 249.542969 50.621094 249.175781 51.09375 248.699219 51.515625 C 248.4375 51.78125 248.175781 51.9375 248.015625 51.9375 C 247.910156 51.9375 247.648438 51.78125 247.277344 51.464844 C 246.910156 51.148438 246.59375 50.882812 246.277344 50.621094 C 245.960938 50.410156 245.699219 50.199219 245.488281 49.933594 C 245.277344 49.722656 245.171875 49.566406 245.171875 49.40625 C 245.382812 48.933594 245.539062 48.617188 245.644531 48.351562 C 246.015625 47.5625 246.277344 47.035156 246.4375 46.664062 C 246.75 46.136719 247.066406 45.609375 247.382812 45.03125 C 247.4375 44.925781 247.542969 44.765625 247.699219 44.554688 C 247.804688 44.660156 247.910156 44.765625 248.015625 44.820312 C 248.121094 44.871094 248.28125 44.976562 248.4375 45.082031 C 249.175781 45.664062 249.648438 46.136719 249.910156 46.453125 C 250.28125 46.769531 250.4375 47.140625 250.492188 47.5625 Z M 255.917969 47.246094 C 255.96875 47.613281 255.96875 47.984375 255.863281 48.40625 C 255.757812 48.828125 255.546875 49.25 255.285156 49.777344 C 255.019531 50.304688 254.652344 50.777344 254.179688 51.199219 C 253.914062 51.464844 253.652344 51.621094 253.492188 51.621094 C 253.386719 51.621094 253.125 51.464844 252.757812 51.148438 C 252.386719 50.832031 252.070312 50.566406 251.753906 50.304688 C 251.4375 50.09375 251.175781 49.828125 251.019531 49.617188 C 250.808594 49.40625 250.703125 49.25 250.703125 49.089844 C 250.914062 48.617188 251.070312 48.300781 251.175781 48.035156 C 251.542969 47.246094 251.808594 46.71875 251.964844 46.347656 C 252.28125 45.820312 252.597656 45.292969 252.914062 44.714844 C 252.964844 44.609375 253.070312 44.449219 253.230469 44.238281 C 253.335938 44.34375 253.441406 44.449219 253.546875 44.503906 C 253.652344 44.554688 253.808594 44.660156 253.96875 44.765625 C 254.703125 45.347656 255.179688 45.820312 255.441406 46.136719 C 255.707031 46.453125 255.863281 46.824219 255.917969 47.246094 Z M 255.917969 47.246094 "/>
<path style=" stroke:none;fill-rule:evenodd;fill:rgb(0%,65.098039%,57.647059%);fill-opacity:1;" d="M 209.832031 29.160156 C 214.625 47.085938 252.546875 32.535156 259.339844 24.835938 C 259.65625 24.519531 259.867188 24.203125 260.128906 24.042969 C 260.394531 23.886719 260.5 23.78125 260.550781 23.675781 C 260.761719 23.410156 260.867188 23.253906 260.972656 23.199219 C 261.339844 22.832031 261.605469 22.621094 261.761719 22.566406 C 261.921875 22.515625 262.132812 22.460938 262.339844 22.460938 C 262.605469 22.460938 262.816406 22.410156 263.027344 22.355469 C 263.027344 22.777344 263.34375 23.304688 264.027344 24.042969 C 264.710938 24.78125 265.027344 25.308594 265.027344 25.625 C 265.027344 26.207031 264.660156 26.839844 264.027344 27.578125 C 263.34375 28.316406 262.816406 28.683594 262.5 28.683594 C 262.339844 28.683594 261.972656 28.578125 261.394531 28.316406 C 260.8125 28.050781 260.289062 27.945312 259.761719 27.945312 C 259.183594 27.945312 258.707031 28.261719 258.179688 28.738281 C 250.753906 35.75 209.566406 55.894531 207.777344 32.640625 C 207.355469 27.261719 207.988281 21.828125 208.460938 16.453125 C 208.460938 16.292969 208.777344 15.449219 209.253906 13.921875 C 209.777344 12.390625 210.199219 11.230469 210.464844 10.441406 C 210.570312 10.230469 208.988281 26.046875 209.832031 29.160156 Z M 209.832031 29.160156 "/>
<path style=" stroke:none;fill-rule:nonzero;fill:rgb(0%,65.098039%,57.647059%);fill-opacity:1;" d="M 194.082031 29.476562 C 194.980469 27.523438 195.664062 25.941406 196.136719 24.835938 C 197.03125 22.726562 197.453125 21.355469 197.453125 20.617188 C 197.453125 20.355469 197.347656 19.878906 197.085938 19.300781 C 196.824219 18.71875 196.558594 18.085938 196.296875 17.507812 C 196.03125 17.085938 195.820312 16.714844 195.609375 16.347656 C 195.398438 15.976562 195.296875 15.714844 195.347656 15.554688 C 195.714844 14.449219 195.980469 13.550781 196.191406 12.972656 C 196.769531 11.335938 197.136719 10.230469 197.402344 9.753906 C 198.085938 9.964844 198.71875 10.703125 199.351562 11.96875 C 199.929688 13.234375 200.246094 14.554688 200.246094 15.871094 C 200.246094 17.242188 199.878906 18.984375 199.085938 21.09375 C 198.191406 23.359375 197.296875 25.625 196.453125 27.839844 C 196.453125 28.210938 196.613281 28.472656 196.980469 28.738281 C 197.347656 28.949219 197.71875 29.160156 198.140625 29.371094 C 198.769531 29.792969 199.191406 30.265625 199.402344 30.6875 C 199.613281 31.109375 199.71875 31.796875 199.71875 32.691406 C 199.71875 34.011719 199.5625 35.328125 199.191406 36.699219 C 198.824219 38.019531 198.246094 39.652344 197.347656 41.605469 C 195.925781 44.660156 193.925781 47.085938 191.503906 48.878906 C 190.609375 49.460938 189.710938 49.882812 188.871094 50.199219 C 187.972656 50.515625 186.972656 50.671875 185.867188 50.671875 C 183.339844 50.671875 181.390625 49.722656 180.019531 47.824219 C 178.863281 46.191406 178.285156 44.082031 178.285156 41.605469 C 178.285156 40.496094 178.546875 39.019531 179.019531 37.226562 C 179.496094 35.433594 180.019531 33.90625 180.496094 32.640625 C 181.023438 31.375 181.496094 30.265625 181.917969 29.316406 C 182.128906 28.894531 182.550781 27.945312 183.234375 26.574219 C 183.65625 25.679688 184.023438 24.992188 184.339844 24.414062 C 184.601562 23.886719 184.867188 23.621094 185.023438 23.675781 C 185.234375 23.726562 185.289062 23.9375 185.183594 24.359375 C 185.078125 24.78125 184.972656 25.203125 184.8125 25.625 C 183.390625 28.789062 182.445312 31.058594 181.917969 32.375 C 180.96875 34.695312 180.546875 36.488281 180.546875 37.808594 C 180.546875 40.234375 181.285156 41.972656 182.761719 43.027344 C 183.8125 43.765625 185.234375 44.132812 187.027344 44.132812 C 190.1875 44.132812 192.820312 43.238281 194.925781 41.5 C 196.71875 39.96875 197.664062 38.386719 197.664062 36.699219 C 197.664062 36.382812 196.929688 35.910156 195.503906 35.222656 C 194.082031 34.539062 193.347656 33.746094 193.347656 32.796875 C 193.347656 32.21875 193.398438 31.691406 193.558594 31.214844 C 193.664062 30.53125 193.820312 30.003906 194.082031 29.476562 Z M 194.082031 29.476562 "/>
<path style=" stroke:none;fill-rule:evenodd;fill:rgb(0%,65.098039%,57.647059%);fill-opacity:1;" d="M 168.117188 29.371094 L 168.117188 30.425781 C 168.117188 31.742188 168.382812 32.746094 168.910156 33.429688 C 169.117188 33.695312 169.328125 33.957031 169.59375 34.117188 C 169.804688 34.273438 170.066406 34.433594 170.332031 34.433594 C 171.332031 34.484375 171.066406 31.058594 172.171875 31.214844 C 172.648438 31.269531 173.015625 31.636719 173.28125 32.058594 C 173.542969 32.535156 173.699219 32.957031 173.753906 33.429688 C 173.753906 34.960938 173.4375 36.488281 172.804688 37.914062 C 171.910156 39.863281 170.75 40.867188 169.222656 40.867188 C 168.382812 40.867188 167.589844 40.445312 166.90625 39.546875 C 166.222656 38.652344 165.851562 37.808594 165.75 36.964844 C 165.644531 36.171875 165.644531 35.644531 165.644531 35.433594 C 165.644531 35.222656 165.644531 35.066406 165.644531 35.011719 L 165.644531 34.273438 C 165.90625 30.214844 166.484375 25.152344 167.171875 21.144531 C 167.222656 20.988281 167.539062 20.144531 168.117188 18.5625 C 168.699219 17.03125 169.222656 15.871094 169.59375 15.082031 C 169.699219 15.027344 169.75 14.976562 169.855469 14.976562 C 169.910156 15.082031 169.855469 15.449219 169.804688 15.976562 L 169.539062 17.613281 C 168.910156 21.460938 168.117188 25.46875 168.117188 29.371094 Z M 168.117188 29.371094 "/>
<path style=" stroke:none;fill-rule:nonzero;fill:rgb(0%,65.098039%,57.647059%);fill-opacity:1;" d="M 155.6875 26.679688 C 154.425781 28.789062 153.792969 30.53125 153.898438 32.007812 C 153.949219 32.640625 154.054688 33.167969 154.320312 33.589844 C 154.582031 34.011719 154.792969 34.222656 155.003906 34.167969 C 155.214844 34.167969 155.476562 33.695312 155.742188 32.746094 C 155.898438 32.269531 156.003906 32.007812 156.058594 32.007812 C 156.480469 32.007812 156.847656 32.269531 157.269531 32.902344 C 157.53125 33.324219 157.691406 33.800781 157.691406 34.273438 C 157.742188 35.59375 157.425781 36.964844 156.636719 38.335938 C 155.742188 39.96875 154.6875 40.8125 153.476562 40.867188 C 152.6875 40.917969 152 40.601562 151.371094 39.863281 C 150.789062 39.125 150.472656 38.335938 150.421875 37.386719 C 150.316406 35.910156 150.738281 34.117188 151.632812 32.058594 C 152.316406 30.425781 153.371094 28.527344 154.742188 26.46875 C 153.898438 26.207031 153.160156 25.730469 152.476562 24.992188 C 151.792969 24.308594 151.421875 23.253906 151.316406 21.882812 C 151.265625 20.882812 151.371094 19.511719 151.6875 17.769531 C 151.949219 16.609375 152.105469 15.871094 152.160156 15.449219 C 152.527344 13.921875 153.160156 12.128906 153.898438 10.070312 C 154.636719 8.015625 155.160156 6.960938 155.476562 6.960938 C 155.476562 7.277344 155.53125 7.59375 155.582031 7.855469 C 155.320312 8.859375 155.054688 9.859375 154.847656 10.863281 C 154.742188 11.441406 154.636719 12.179688 154.425781 13.183594 C 154.265625 14.183594 154.160156 14.921875 154.214844 15.449219 C 154.214844 15.820312 154.214844 16.082031 154.214844 16.242188 C 154.265625 17.191406 154.476562 17.875 154.847656 18.402344 C 155.214844 19.035156 155.847656 19.40625 156.742188 19.5625 C 156.953125 19.617188 157.214844 19.667969 157.53125 19.617188 C 157.796875 19.617188 158.007812 19.5625 158.214844 19.5625 C 158.425781 19.5625 158.53125 19.667969 158.53125 19.933594 C 158.53125 20.355469 158.480469 20.777344 158.320312 21.300781 C 158.164062 21.828125 157.796875 22.671875 157.214844 23.9375 C 156.792969 24.78125 156.375 25.519531 155.953125 26.257812 C 155.898438 26.363281 155.792969 26.523438 155.6875 26.679688 Z M 155.6875 26.679688 "/>
<path style=" stroke:none;fill-rule:nonzero;fill:rgb(0%,65.098039%,57.647059%);fill-opacity:1;" d="M 144.574219 30.476562 C 144.363281 31.320312 144.207031 31.953125 144.101562 32.429688 C 143.996094 32.902344 143.839844 33.429688 143.628906 33.957031 C 143.207031 35.382812 142.574219 36.804688 141.730469 38.230469 C 140.941406 39.652344 139.992188 41.023438 138.941406 42.34375 C 137.308594 44.292969 135.621094 45.714844 133.832031 46.71875 C 132.039062 47.71875 129.988281 48.195312 127.773438 48.195312 C 125.246094 48.195312 123.296875 47.402344 121.929688 45.820312 C 120.558594 44.238281 119.925781 42.238281 119.925781 39.707031 C 119.925781 38.441406 120.085938 37.121094 120.402344 35.644531 C 120.714844 34.167969 121.085938 33.007812 121.453125 32.058594 C 121.824219 31.109375 122.296875 30.109375 122.824219 29.054688 C 123.507812 27.683594 124.246094 26.3125 125.035156 24.886719 C 125.351562 24.308594 125.5625 23.992188 125.613281 23.9375 C 125.667969 23.886719 125.773438 23.886719 125.929688 23.886719 C 126.035156 23.9375 126.035156 24.148438 125.984375 24.570312 C 125.929688 24.992188 125.878906 25.308594 125.773438 25.574219 L 123.773438 29.949219 C 123.246094 31.269531 122.929688 32.164062 122.769531 32.691406 C 122.507812 33.589844 122.347656 34.484375 122.347656 35.433594 C 122.347656 37.808594 123.140625 39.546875 124.773438 40.550781 C 125.984375 41.339844 127.511719 41.761719 129.355469 41.761719 C 130.671875 41.761719 131.828125 41.65625 132.832031 41.445312 C 133.832031 41.234375 134.882812 40.8125 136.042969 40.179688 C 137.148438 39.546875 138.148438 38.757812 139.046875 37.808594 C 139.625 37.175781 140.363281 36.226562 141.152344 35.011719 C 141.625 34.222656 141.996094 33.429688 142.257812 32.746094 C 142.519531 32.058594 142.625 31.164062 142.625 30.109375 L 142.730469 25.730469 C 142.730469 24.992188 142.835938 24.359375 142.996094 23.726562 C 143.152344 23.148438 143.417969 22.355469 143.785156 21.40625 L 144.996094 19.035156 C 145.261719 18.613281 145.367188 18.296875 145.472656 18.246094 C 145.523438 18.140625 145.628906 17.980469 145.785156 17.769531 C 145.996094 17.980469 146.050781 18.246094 146.050781 18.5625 L 145.734375 20.671875 L 145.417969 23.675781 C 145.417969 24.835938 145.367188 25.890625 145.207031 26.734375 C 145.101562 27.839844 144.890625 29 144.574219 30.476562 Z M 136.832031 27.367188 C 136.886719 27.523438 136.886719 27.734375 136.886719 28.050781 C 136.886719 28.789062 136.621094 29.476562 136.148438 30.160156 C 135.199219 31.53125 134.464844 32.269531 134.042969 32.324219 C 133.9375 32.324219 133.777344 32.21875 133.515625 32.007812 C 132.566406 31.320312 132.09375 30.953125 132.09375 30.898438 C 131.671875 30.636719 131.304688 30.425781 130.988281 30.214844 C 130.617188 30.003906 130.460938 29.738281 130.40625 29.476562 L 131.777344 26.3125 C 132.199219 25.519531 132.621094 24.941406 132.9375 24.414062 C 133.042969 24.308594 133.148438 24.097656 133.304688 23.886719 C 133.566406 23.992188 133.777344 24.097656 133.988281 24.203125 C 134.199219 24.308594 134.410156 24.414062 134.570312 24.519531 C 135.410156 25.152344 135.992188 25.679688 136.304688 26.046875 C 136.621094 26.523438 136.78125 26.890625 136.832031 27.367188 Z M 136.832031 27.367188 "/>
<path style=" stroke:none;fill-rule:nonzero;fill:rgb(0%,65.098039%,57.647059%);fill-opacity:1;" d="M 201.929688 47.5625 C 201.984375 47.929688 201.984375 48.300781 201.824219 48.722656 C 201.71875 49.144531 201.511719 49.566406 201.246094 50.09375 C 200.984375 50.621094 200.613281 51.09375 200.140625 51.515625 C 199.878906 51.78125 199.613281 51.9375 199.457031 51.9375 C 199.351562 51.9375 199.085938 51.78125 198.71875 51.464844 C 198.351562 51.148438 198.035156 50.882812 197.71875 50.621094 C 197.402344 50.410156 197.136719 50.199219 196.929688 49.933594 C 196.71875 49.722656 196.613281 49.566406 196.613281 49.40625 C 196.824219 48.933594 196.980469 48.617188 197.085938 48.351562 C 197.453125 47.5625 197.71875 47.035156 197.875 46.664062 C 198.191406 46.136719 198.507812 45.609375 198.824219 45.03125 C 198.875 44.925781 198.980469 44.765625 199.140625 44.554688 C 199.246094 44.660156 199.351562 44.765625 199.457031 44.820312 C 199.5625 44.871094 199.71875 44.976562 199.878906 45.082031 C 200.613281 45.664062 201.089844 46.136719 201.351562 46.453125 C 201.667969 46.769531 201.824219 47.140625 201.929688 47.5625 Z M 207.355469 47.246094 C 207.410156 47.613281 207.410156 47.984375 207.304688 48.40625 C 207.199219 48.828125 206.988281 49.25 206.722656 49.777344 C 206.460938 50.304688 206.09375 50.777344 205.617188 51.199219 C 205.355469 51.464844 205.089844 51.621094 204.933594 51.621094 C 204.828125 51.621094 204.566406 51.464844 204.195312 51.148438 C 203.828125 50.832031 203.511719 50.566406 203.195312 50.304688 C 202.878906 50.09375 202.617188 49.828125 202.457031 49.617188 C 202.246094 49.40625 202.140625 49.25 202.140625 49.089844 C 202.351562 48.617188 202.511719 48.300781 202.617188 48.035156 C 202.984375 47.246094 203.246094 46.71875 203.40625 46.347656 C 203.722656 45.820312 204.039062 45.292969 204.355469 44.714844 C 204.40625 44.609375 204.511719 44.449219 204.671875 44.238281 C 204.773438 44.34375 204.878906 44.449219 204.984375 44.503906 C 205.089844 44.554688 205.25 44.660156 205.40625 44.765625 C 206.144531 45.347656 206.617188 45.820312 206.882812 46.136719 C 207.09375 46.453125 207.25 46.824219 207.355469 47.246094 Z M 207.355469 47.246094 "/>
</g>
</svg>
