<?xml version="1.0" encoding="UTF-8"?>
<!DOCTYPE svg PUBLIC "-//W3C//DTD SVG 1.1//EN" "http://www.w3.org/Graphics/SVG/1.1/DTD/svg11.dtd">
<!-- Creator: CorelDRAW 2018 (64-Bit Evaluation Version) -->
<svg xmlns="http://www.w3.org/2000/svg" xml:space="preserve" width="7.87402in" height="2.23908in" version="1.1" style="shape-rendering:geometricPrecision; text-rendering:geometricPrecision; image-rendering:optimizeQuality; fill-rule:evenodd; clip-rule:evenodd"
viewBox="0 0 7688.37 2186.29"
 xmlns:xlink="http://www.w3.org/1999/xlink">
 <defs>
  <style type="text/css">
   <![CDATA[
    .fil0 {fill:#fff}
    .fil1 {fill:#fff}
   ]]>
  </style>
 </defs>
 <g id="Layer_x0020_1">
  <metadata id="CorelCorpID_0Corel-Layer"/>
  <g id="_2228100193104">
   <g>
    <path class="fil0" d="M390.84 776.86c-104.88,121.31 -317.12,362.16 -368,638.6 -50.94,276.93 -23.19,520.62 149.81,656.07 283.34,221.9 571.26,80.85 702.56,-77.49l526.92 -635.4c222.97,-268.89 374.06,-422.91 759.39,-547.58 412.52,-133.5 918.69,-140.29 1162.32,-449.43 91.22,-92.96 141.16,-213.46 149.81,-361.61 -333.2,148.59 -1191.61,-57.99 -1813.23,790.38l-821.37 1121c-162.49,221.78 -501.09,216.04 -650.9,51.66 -133.82,-146.82 -87.82,-350.41 10.33,-526.92 84.22,-151.5 195.32,-259.66 356.44,-366.78 141.08,-93.8 293.03,-193.43 356.45,-335.79 36.63,-82.19 30.79,-335.32 -35.32,-348.87 -65.88,-13.5 -317.03,8.56 -392.78,56.42 -69.48,43.88 -61.38,109.47 -61.38,185.48 0,47.83 0.84,113.47 -31.05,150.27z"/>
    <path class="fil0" d="M911.17 2091.67l521.96 -650.38c170.88,-212.93 374.12,-422.96 759.39,-547.58 144.93,-46.87 301.62,-78.21 454.34,-112.46l206.9 -32.18c-55.11,304.76 -262.33,474.13 -619.91,521.76 -295.06,39.32 -566.3,144.21 -805.88,325.45 -191.63,144.97 -345.82,349.11 -506.37,539.49 -48.93,57.99 -63.01,21.45 -10.42,-44.08z"/>
    <path class="fil0" d="M1327.26 1804.21c-143.48,185.42 -47.25,439.25 219.29,354.1 132.72,-42.37 172.82,-151.73 225.88,-271.67 59.09,-133.56 229.62,-192.39 401.37,-83.38 -45.07,-170.53 -211.31,-232.03 -333.55,-233.66 -218.59,-2.93 -398.38,86.49 -512.99,234.61z"/>
   </g>
   <path class="fil1" d="M3164.46 1568.67l236.25 0 34.33 369.69 147.64 -369.69 235.48 0 -93.49 607.69 -146.71 0 71.29 -463.36 -185.09 463.36 -132.72 0 -42.1 -463.36 -71.29 463.36 -147.08 0 93.49 -607.69zm856.83 310.01l-151.48 -16.97c10.15,-28.15 21.96,-50.41 35.42,-66.52 13.39,-16.11 31.26,-30.12 53.78,-42 16.1,-8.66 37.57,-15.31 64.1,-19.94 26.57,-4.68 54.96,-7.1 85.12,-7.1 48.33,0 86.87,2.82 115.21,8.51 28.51,5.64 51.15,17.53 67.9,35.5 11.85,12.44 19.98,30.02 24.47,52.78 4.32,22.91 4.89,44.57 1.7,65.37l-29.88 194.38c-3.19,20.65 -4.37,36.92 -3.72,48.7 0.77,11.74 3.88,26.74 9.62,44.97l-151.45 0c-4.37,-11.33 -6.91,-19.94 -7.88,-25.89 -1.01,-5.94 -1.33,-15.31 -1.3,-28 -24.38,21.35 -47.8,36.46 -70.04,45.52 -30.45,12.19 -64.5,18.28 -102.27,18.28 -50.19,0 -86.46,-12.19 -108.86,-36.51 -22.24,-24.22 -30.62,-54.19 -25.16,-89.84 5.18,-33.54 18.73,-60.98 40.89,-82.49 22.12,-21.65 59.08,-37.62 111.13,-48.09 62.6,-12.74 103.24,-21.65 122,-26.74 18.6,-5.14 38.78,-11.88 60.01,-20.09 3.24,-20.8 1.42,-35.25 -5.42,-43.61 -7,-8.21 -20.7,-12.44 -41.41,-12.44 -26.37,0 -46.87,4.53 -61.43,13.29 -11.32,6.95 -21.75,19.94 -31.06,38.93zm126.29 88.68c-23.45,8.36 -47.76,15.71 -72.67,22.11 -34.13,9.01 -56.37,18.08 -66.36,26.84 -10.51,9.22 -16.54,19.54 -18.32,31.17 -2.06,13.3 0.73,24.02 8.25,32.53 7.6,8.31 19.98,12.59 37.17,12.59 17.99,0 35.3,-4.53 52.25,-13.6 16.86,-9.21 29.56,-20.39 38.05,-33.39 8.53,-13.14 14.24,-30.27 17.47,-51.22l4.16 -27.04zm315.87 -398.7l161.43 0 -34.45 223.85c25.59,-23.77 50.02,-40.74 73.19,-50.96 23.29,-10.33 49.74,-15.41 79.38,-15.41 43.84,0 76.19,14 97.22,41.9 20.83,28 26.85,70.75 17.99,128.46l-43.07 279.85 -162.12 0 37.24 -242.08c4.25,-27.6 2.39,-47.13 -5.62,-58.57 -8.09,-11.63 -20.82,-17.28 -38.58,-17.28 -19.49,0 -36.68,7.81 -51.08,23.22 -14.52,15.41 -24.95,43.31 -31.1,83.34l-32.51 211.36 -161.43 0 93.49 -607.69zm640.92 310.01l-151.53 -16.97c10.19,-28.15 22,-50.41 35.43,-66.52 13.42,-16.11 31.3,-30.12 53.82,-42 16.05,-8.66 37.57,-15.31 64.1,-19.94 26.57,-4.68 54.91,-7.1 85.13,-7.1 48.33,0 86.82,2.82 115.21,8.51 28.51,5.64 51.12,17.53 67.86,35.5 11.89,12.44 20.02,30.02 24.51,52.78 4.32,22.91 4.89,44.57 1.7,65.37l-29.93 194.38c-3.15,20.65 -4.32,36.92 -3.68,48.7 0.77,11.74 3.88,26.74 9.63,44.97l-151.45 0c-4.37,-11.33 -6.96,-19.94 -7.93,-25.89 -1.01,-5.94 -1.3,-15.31 -1.25,-28 -24.39,21.35 -47.8,36.46 -70.04,45.52 -30.45,12.19 -64.54,18.28 -102.27,18.28 -50.18,0 -86.46,-12.19 -108.86,-36.51 -22.24,-24.22 -30.65,-54.19 -25.16,-89.84 5.14,-33.54 18.73,-60.98 40.84,-82.49 22.12,-21.65 59.12,-37.62 111.17,-48.09 62.6,-12.74 103.2,-21.65 122,-26.74 18.6,-5.14 38.78,-11.88 60.02,-20.09 3.19,-20.8 1.37,-35.25 -5.42,-43.61 -7.04,-8.21 -20.7,-12.44 -41.45,-12.44 -26.32,0 -46.83,4.53 -61.43,13.29 -11.32,6.95 -21.76,19.94 -31.02,38.93zm126.25 88.68c-23.41,8.36 -47.72,15.71 -72.63,22.11 -34.17,9.01 -56.41,18.08 -66.36,26.84 -10.51,9.22 -16.54,19.54 -18.32,31.17 -2.06,13.3 0.73,24.02 8.21,32.53 7.64,8.31 19.98,12.59 37.16,12.59 18.04,0 35.35,-4.53 52.29,-13.6 16.82,-9.21 29.52,-20.39 38.05,-33.39 8.49,-13.14 14.24,-30.27 17.43,-51.22l4.17 -27.04zm290.11 -231.15l150.35 0 -11 71.56c26.93,-29.26 52.9,-50.06 77.84,-62.65 24.91,-12.59 53.91,-18.99 86.91,-18.99 44.68,0 77.4,14 98.47,41.75 20.87,27.75 26.89,70.61 18,128.62l-43.07 279.85 -162.12 0 37.25 -242.08c4.24,-27.6 2.38,-47.13 -5.62,-58.57 -8.09,-11.63 -20.87,-17.28 -38.58,-17.28 -19.49,0 -36.68,7.81 -51.12,23.22 -14.48,15.41 -24.91,43.31 -31.06,83.34l-32.51 211.36 -161.43 0 67.69 -440.14zm1128.38 339.83l-204.58 0 -43.59 100.32 -183.48 0 311.87 -607.69 195.81 0 125.04 607.69 -187.92 0 -13.14 -100.32zm-17.39 -131.44l-30.69 -218.46 -97.46 218.46 128.15 0zm364.56 -375.93l161.43 0 -17.67 114.92 -161.44 0 17.68 -114.92zm-25.76 167.54l161.43 0 -67.7 440.14 -161.47 0 67.74 -440.14zm266.01 0l151.04 0 -11.08 72.02c19.37,-31.12 37.69,-52.63 54.92,-64.41 17.23,-11.73 37.24,-17.68 60.01,-17.68 23.78,0 48.53,7.81 74.49,23.22l-68.46 120.26c-17.63,-8.36 -32.19,-12.44 -43.27,-12.44 -21.11,0 -38.9,9.16 -53.3,27.29 -20.62,25.73 -36.44,73.88 -47.27,144.33l-22.69 147.56 -162.12 0 67.74 -440.14z"/>
   <g>
    <path class="fil1" d="M7368.22 899.05c13.47,-9.3 26.44,-18.64 38.86,-27.94 17.63,-19.69 37.81,-47.15 60.62,-82.37 3.11,-5.18 17.63,-33.16 43.51,-83.95 10.35,-20.7 23.33,-31.06 38.86,-31.06 7.24,0 17.11,2.59 29.52,7.76 12.46,5.18 22.28,7.77 29.52,7.77 21.75,0 40.44,-10.35 55.97,-31.1 15.53,-20.7 23.29,-44 23.29,-69.92 0,-8.29 -4.41,-18.4 -13.18,-30.29 -8.81,-11.93 -15.81,-17.88 -20.99,-17.88 -4.16,0 -9.34,5.18 -15.53,15.53 -11.41,20.7 -18.16,32.11 -20.22,34.17 -5.18,-7.24 -11.41,-12.94 -18.64,-17.06 -11.4,-7.28 -21.75,-10.88 -31.1,-10.88 -13.47,0 -26.93,6.71 -40.4,20.18 -8.29,8.29 -15.53,18.16 -21.76,29.56 -6.23,11.36 -13.75,27.7 -22.52,48.93 -8.82,21.23 -15.29,35.99 -19.45,44.28 -7.24,14.52 -13.99,24.87 -20.18,31.1 -2.11,2.06 -9.35,8.29 -21.8,18.64 -20.7,16.58 -34.41,31.34 -41.17,44.32 -6.75,12.94 -10.11,27.18 -10.11,42.71l-3.11 57.51z"/>
    <path class="fil0" d="M7565.48 959.14c-8.88,15.36 -17.41,31.25 -26.37,47.02 -25.44,44.72 -20.42,68.66 -17.55,83.09 0.35,1.9 3.68,20.89 18.23,3.33 19.6,-23.68 51.84,3.21 54.82,16.04 13.12,56.54 -46.53,100.03 -98.89,66.39 -9.9,-6.37 -18.26,-20.53 -21.76,-29.76 -8.26,-21.67 -0.81,-68.78 25.56,-115.81 26.34,-46.93 50.47,-68.34 65.98,-70.3z"/>
    <path class="fil1" d="M7401.25 888.62c-3.11,8.29 -5.94,15.28 -8.53,20.99 -2.59,5.7 -7.76,14.76 -15.53,27.21 -7.8,12.42 -16.34,25.36 -25.68,38.82 -17.59,26.93 -31.06,43.27 -40.4,48.97 -9.3,5.7 -22.77,11.64 -40.4,17.87 -8.29,3.11 -26.41,9.3 -54.39,18.64l-83.91 21.75c-6.23,1.05 -13.22,2.06 -20.99,3.11 -7.77,1.05 -12.17,0.53 -13.22,-1.53 -1.05,-2.1 3.88,-6.51 14.76,-13.22 10.88,-6.75 17.63,-10.88 20.22,-12.46 2.59,-1.54 22,-13.19 58.27,-34.94 22.81,-13.47 42.46,-26.45 59.04,-38.86 35.22,-25.92 60.09,-46.63 74.61,-62.15 18.64,-19.69 27.98,-36.28 27.98,-49.74 -5.17,2.06 -11.16,3.6 -17.87,4.65 -6.75,1.05 -14.76,1.58 -24.1,1.58 -18.64,-3.11 -33.69,-8.29 -45.05,-15.57 -16.58,-10.35 -24.87,-23.82 -24.87,-40.4 0,-12.41 11.41,-42.99 34.17,-91.68 6.23,-15.57 15.05,-30.08 26.45,-43.55 15.53,-19.66 29.52,-29.52 41.94,-29.52 20.75,0 38.34,7.28 52.85,21.76 18.64,19.69 27.99,39.91 27.99,60.62 1.01,7.24 1.54,18.64 1.54,34.21 0,11.36 -0.24,22 -0.77,31.83 -0.53,9.87 -2.06,19.45 -4.65,28.75 -2.59,9.34 -5.18,17.88 -7.8,25.68 -2.59,7.77 -6.47,16.82 -11.65,27.17z"/>
   </g>
   <path class="fil1" d="M7113.93 349.6c2.18,-6.63 5.66,-14.96 10.48,-25.11 0.69,-2.18 2.79,-5.66 6.31,-10.35 3.84,4.69 5.99,8.57 6.43,11.65l-0.04 53.42 3.31 87.47 3.11 139.31c0.41,31.34 -0.76,57.42 -3.48,78.25 -2.71,20.82 -7.04,43.19 -12.98,67.09l-24.59 78.98c-11.48,28.87 -19.9,48.16 -25.31,57.87 -5.34,9.71 -10.64,14.92 -15.77,15.69l-6.15 -10.11c4.12,-28.87 7.88,-56.9 11.24,-84.11 3.36,-27.17 5.54,-48.16 6.51,-63 3.36,-48.61 4.41,-91.48 3.24,-128.44 -1.25,-37.04 -2.43,-70.08 -3.52,-99.28l9.91 -50.11 31.3 -119.22z"/>
   <path class="fil1" d="M6874.94 446.49c5.18,1.05 11.65,3.11 19.41,6.23 7.8,3.11 12.7,4.65 14.8,4.65 9.3,0 17.35,-3.36 24.06,-10.07 6.75,-6.75 14.24,-16.86 22.52,-30.33 8.29,-13.47 14.52,-19.7 18.68,-18.64 7.24,2.06 7.77,12.41 1.54,31.1 -6.23,14.48 -10.35,24.34 -12.41,29.52 -7.28,13.47 -13.99,24.87 -20.22,34.17 -26.93,35.22 -49.74,52.85 -68.38,52.85l0 -99.48z"/>
   <path class="fil1" d="M6845.17 1292.28c0,12.94 -1.13,22.68 -3.44,29.16 -2.35,6.47 -7.2,15.25 -14.6,26.32 -21.27,28.67 -38.38,43.03 -51.32,43.03 -2.75,0 -8.09,-3.92 -15.93,-11.81 -7.89,-7.85 -15.04,-15.49 -21.52,-22.89 -22.2,-19.41 -33.28,-30.98 -33.28,-34.66 0,-3.72 5.54,-15.29 16.62,-34.7 8.33,-13.87 14.36,-24.06 18.04,-30.53 9.26,-16.62 15.28,-27.26 18.04,-31.91 9.26,-13.87 15.28,-20.79 18.04,-20.79 1.86,0 5.34,1.86 10.39,5.54 5.1,3.68 10.88,8.77 17.35,15.24 17.59,16.66 28.92,29.6 34.01,38.86 5.06,9.26 7.6,18.97 7.6,29.12zm-63.81 -174.78c0,12.94 -1.13,22.65 -3.44,29.12 -2.35,6.47 -7.2,15.29 -14.6,26.37 -21.27,28.67 -38.38,43.03 -51.32,43.03 -2.75,0 -8.09,-3.96 -15.93,-11.81 -7.88,-7.85 -15.04,-15.49 -21.52,-22.89 -22.2,-19.41 -33.28,-30.98 -33.28,-34.7 0,-3.68 5.54,-15.25 16.62,-34.66 8.33,-13.87 14.36,-24.06 18.04,-30.53 9.26,-16.66 15.28,-27.3 18.04,-31.91 9.26,-13.87 15.28,-20.83 18.04,-20.83 1.86,0 5.34,1.86 10.39,5.58 5.1,3.68 10.88,8.77 17.35,15.25 17.59,16.66 28.92,29.6 34.01,38.86 5.1,9.22 7.6,18.92 7.6,29.12zm137.33 0c0,12.94 -1.13,22.65 -3.44,29.12 -2.3,6.47 -7.2,15.29 -14.56,26.37 -21.27,28.67 -38.41,43.03 -51.36,43.03 -2.75,0 -8.09,-3.96 -15.93,-11.81 -7.88,-7.85 -15.04,-15.49 -21.51,-22.89 -22.2,-19.41 -33.28,-30.98 -33.28,-34.7 0,-3.68 5.54,-15.25 16.62,-34.66 8.33,-13.87 14.35,-24.06 18.04,-30.53 9.26,-16.66 15.28,-27.3 18.03,-31.91 9.26,-13.87 15.29,-20.83 18.04,-20.83 1.86,0 5.34,1.86 10.43,5.58 5.06,3.68 10.84,8.77 17.31,15.25 17.59,16.66 28.91,29.6 34.01,38.86 5.09,9.22 7.6,18.92 7.6,29.12z"/>
   <path class="fil1" d="M6876.51 544.48c-8.29,0 -16.34,-2.59 -24.1,-7.77 -7.77,-5.17 -15.29,-8.29 -22.53,-9.3 -12.41,-2.1 -25.92,2.59 -40.4,13.95 -14.52,11.4 -21.75,22.28 -21.75,32.63l-63.73 34.21c3.11,-10.35 8.29,-22.81 15.53,-37.28 4.17,-8.29 9.87,-18.68 17.11,-31.1 17.63,-26.93 38.1,-49.74 61.39,-68.38 23.33,-18.64 44.28,-27.98 62.96,-27.98l15.53 1.58c2.06,6.19 3.88,14.24 5.42,24.06 1.58,9.87 2.34,17.35 2.34,22.57 0,11.36 -0.77,21.76 -2.34,31.06 -1.54,9.34 -3.36,16.58 -5.42,21.76z"/>
   <path class="fil1" d="M6444.41 1223.78c1.82,9.06 1.13,18.8 -2.06,29.2 -3.16,10.43 -8.13,22.2 -14.92,35.3 -6.79,13.14 -16.05,25.15 -27.82,35.99 -7.24,7.24 -13.14,10.88 -17.67,10.88 -2.71,0 -8.82,-4.09 -18.32,-12.21 -9.5,-8.17 -18.11,-15.17 -25.8,-21.07 -7.68,-5.86 -14.28,-11.52 -19.69,-16.98 -5.42,-5.42 -8.13,-9.95 -8.13,-13.55 5.42,-11.77 9.5,-20.83 12.21,-27.17 9.06,-19.9 15.85,-34.37 20.34,-43.43 8.17,-13.59 16.3,-27.62 24.46,-42.1 1.82,-2.71 4.53,-6.8 8.13,-12.21 2.71,2.71 5.46,4.97 8.17,6.75 2.71,1.82 6.31,4.09 10.84,6.8 19.04,15.41 31.7,27.17 38.05,35.3 6.31,8.17 10.39,17.67 12.21,28.51zm139.84 -8.13c1.82,9.06 1.13,18.81 -2.02,29.2 -3.15,10.39 -8.17,22.16 -14.92,35.3 -6.8,13.14 -16.1,25.11 -27.86,35.99 -7.24,7.24 -13.1,10.84 -17.63,10.84 -2.71,0 -8.86,-4.04 -18.36,-12.21 -9.5,-8.13 -18.08,-15.17 -25.8,-21.03 -7.68,-5.9 -14.24,-11.57 -19.66,-16.99 -5.46,-5.42 -8.17,-9.94 -8.17,-13.59 5.42,-11.77 9.5,-20.83 12.21,-27.14 9.06,-19.94 15.85,-34.41 20.38,-43.47 8.13,-13.59 16.3,-27.62 24.43,-42.1 1.82,-2.71 4.53,-6.8 8.17,-12.21 2.71,2.71 5.42,4.97 8.13,6.79 2.71,1.82 6.35,4.08 10.88,6.79 19.01,15.37 31.66,27.14 38.01,35.3 6.35,8.13 10.44,17.63 12.21,28.51z"/>
   <path class="fil0" d="M5396.98 749.67c123.4,460.83 1099.99,87.09 1274.71,-111.63 7.74,-8.79 13.99,-16.06 20.18,-20.18 6.22,-4.14 9.84,-7.27 10.89,-9.35 5.17,-6.22 8.79,-10.37 10.86,-12.41 9.35,-9.35 16.06,-14.78 20.21,-16.33 4.15,-1.55 9.31,-2.6 15.54,-3.13 6.22,-0.5 11.92,-1.28 17.11,-2.31 0,10.34 8.79,24.86 26.4,43.52 17.61,18.64 26.43,32.1 26.43,40.39 0,14.52 -8.82,31.08 -26.43,49.74 -17.61,18.66 -30.55,27.98 -38.85,27.98 -4.14,0 -13.46,-3.13 -27.98,-9.32 -14.52,-6.22 -28.48,-9.35 -41.97,-9.35 -15.54,0 -27.57,8.18 -40.39,20.21 -191.57,179.88 -1252.19,698.57 -1298.25,100.21 -10.69,-138.88 6.02,-278.46 17.23,-416.64 0.29,-3.94 7.74,-25.91 20.89,-65.11 13.11,-39.25 23.75,-68.96 31.83,-89.23 0.79,-3.12 -39.78,403.09 -18.43,482.91z"/>
   <path class="fil1" d="M4991.92 758.65c22.77,-50.79 40.4,-90.67 52.82,-119.7 22.81,-53.86 34.21,-90.14 34.21,-108.78 0,-7.24 -3.11,-18.64 -9.34,-34.17 -6.23,-15.57 -12.94,-31.1 -20.18,-46.63 -6.23,-10.35 -12.21,-20.46 -17.87,-30.33 -5.7,-9.83 -8.05,-16.82 -7,-20.95 9.3,-29.04 16.58,-51.32 21.75,-66.85 14.48,-42.5 24.87,-69.92 31.06,-82.38 17.63,5.18 34.21,24.35 49.74,57.51 15.53,33.16 23.33,66.85 23.33,101.02 0,35.22 -9.87,79.79 -29.56,133.65 -22.77,58.03 -45.57,116.06 -68.38,174.09 0,9.3 4.69,16.82 13.99,22.52 9.34,5.7 19.17,11.12 29.56,16.3 16.54,11.4 27.42,22.81 32.64,34.21 5.17,11.41 7.76,28.51 7.76,51.28 0,34.21 -4.41,68.38 -13.22,102.59 -8.82,34.17 -24.59,76.15 -47.39,125.89 -37.29,78.74 -87.55,140.89 -150.76,186.51 -22.81,14.48 -45.57,25.64 -68.38,33.4 -22.81,7.77 -48.69,11.64 -77.73,11.64 -65.27,0 -115.49,-24.34 -150.76,-73.03 -30.05,-42.5 -45.05,-95.84 -45.05,-160.1 0,-29 6.23,-66.57 18.64,-112.67 12.46,-46.1 25.11,-85.21 38.09,-117.36 12.94,-32.11 25.11,-60.58 36.52,-85.45 5.18,-11.4 16.58,-34.74 34.17,-69.96 11.41,-22.81 20.75,-41.17 27.99,-55.16 7.24,-13.99 12.94,-20.46 17.11,-19.45 5.17,1.05 6.71,6.75 4.65,17.11 -2.06,10.35 -5.17,21.23 -9.3,32.64 -36.27,81.85 -61.15,139.88 -74.61,174.09 -23.82,59.04 -35.75,105.67 -35.75,139.88 0,62.16 19.17,106.72 57.51,133.65 26.93,18.64 63.73,27.94 110.36,27.94 80.8,0 148.65,-22.77 203.57,-68.38 46.63,-39.35 69.96,-80.27 69.96,-122.78 0,-8.29 -18.4,-20.99 -55.2,-38.05 -36.76,-17.11 -55.16,-38.09 -55.16,-62.96 0,-14.48 1.82,-28.23 5.42,-41.17 3.64,-12.94 8.57,-26.16 14.8,-39.63z"/>
   <path class="fil0" d="M4324.02 755.95l-0.03 0.12 0.06 -0.12 0 27.31c0,34.24 6.75,60.22 20.21,77.88 5.46,7.15 11.19,12.92 17.15,17.17 5.99,4.26 12.21,7.97 18.75,8.42 26.26,1.9 18.93,-87.17 47.34,-83.16 12.82,1.81 21.82,10.77 27.89,21.45 6.72,11.74 10.6,23.53 11.65,35.3 0,39.62 -8.29,78.15 -24.88,115.63 -22.78,50.3 -53.36,75.47 -91.68,75.47 -21.76,0 -41.44,-11.5 -59.09,-34.52 -17.61,-23.02 -27.46,-44.96 -29.53,-65.84 -2.08,-20.88 -3.1,-33.98 -3.1,-39.35 0,-5.34 0,-9.08 0,-11.23l0 -19.28c6.25,-104.88 21.35,-234.72 38.7,-337.58 0.96,-4.29 9.35,-26.25 24.86,-65.81 15.51,-39.59 27.98,-69.58 37.3,-89.95 2.07,-1.05 4.15,-2.11 6.22,-3.2 1.05,3.2 0.5,11.8 -1.55,25.68l-6.22 41.76c-14.45,99.99 -34.06,202.35 -34.06,303.85z"/>
   <path class="fil1" d="M4003.74 686.77c-33.12,53.87 -48.61,99.4 -46.43,136.65 1.01,16.54 4.69,30.05 11,40.56 6.35,10.52 12.05,15.65 17.23,15.37 5.17,-0.32 11.73,-12.66 19.61,-36.96 4.45,-12.7 7.2,-19.13 8.25,-19.17 10.31,-0.61 20.62,7.08 30.93,23.09 6.88,11 10.68,22.69 11.41,35.14 2.02,34.09 -6.83,68.91 -26.53,104.29 -22.44,41.77 -49.7,63.65 -81.77,65.55 -20.7,1.21 -38.58,-7.32 -53.66,-25.64 -15.12,-18.32 -23.37,-39.39 -24.79,-63.17 -2.22,-38.25 8.05,-83.99 30.86,-137.29 18.24,-42.54 45.01,-90.34 80.27,-143.28 -21.19,-7.03 -40.6,-19.61 -58.27,-37.77 -17.71,-18.16 -27.58,-44.85 -29.64,-80.03 -1.54,-25.88 1.58,-61.35 9.3,-106.4 6.55,-29.48 10.59,-49.42 12.01,-59.89 10.15,-38.98 25.11,-85.01 44.8,-138.06 19.66,-53.1 33.16,-79.83 40.4,-80.23 0.49,8.25 1.46,15.97 2.95,23.13 -6.75,26.37 -13.02,52.17 -18.8,77.44 -2.26,14.64 -5.74,34.57 -10.51,59.77 -4.69,25.19 -6.67,44.48 -5.87,57.95 -0.53,9.38 -0.65,16.13 -0.4,20.26 1.41,23.78 6.67,42.14 15.73,55.12 9.26,16.05 25.39,26 48.49,29.8 5.26,1.78 12.05,2.43 20.3,1.94 6.23,-0.37 11.93,-0.73 17.11,-1.01 5.14,-0.32 7.93,2.63 8.29,8.86 0.61,10.35 -1.01,22.12 -4.93,35.3 -3.88,13.22 -13.18,35.83 -27.9,67.86 -11.16,21.39 -21.96,41.21 -32.27,59.48 -1.9,3.23 -4.29,7 -7.16,11.32z"/>
   <path class="fil1" d="M3717.03 784.44c-5.18,21.76 -9.06,38.62 -11.65,50.51 -2.59,11.93 -6.47,25.11 -11.65,39.63 -11.4,36.27 -27.46,73.03 -48.2,110.36 -20.7,37.28 -44.52,72.51 -71.5,105.67 -41.41,49.74 -85.45,87.27 -132.07,112.66 -46.63,25.4 -98.43,38.1 -155.41,38.1 -65.27,0 -115.25,-20.22 -149.99,-60.62 -34.7,-40.4 -52.05,-92.73 -52.05,-156.98 0,-32.11 4.12,-66.81 12.42,-104.09 8.29,-37.33 17.39,-68.14 27.21,-92.48 9.83,-24.35 21.52,-49.99 34.98,-76.92 17.59,-35.22 36.76,-70.97 57.51,-107.25 8.29,-14.52 13.18,-22.52 14.76,-24.1 1.54,-1.54 4.41,-1.78 8.53,-0.77 2.06,1.05 2.34,6.75 0.77,17.1 -1.54,10.36 -3.36,19.17 -5.42,26.41l-51.28 111.9c-13.5,34.21 -22.28,57.51 -26.44,69.96 -7.24,22.77 -10.88,46.1 -10.88,69.92 0,61.1 20.74,105.14 62.16,132.07 31.1,20.75 70.48,31.1 118.12,31.1 34.21,0 64.26,-2.83 90.14,-8.53 25.92,-5.7 53.34,-16.58 82.37,-32.63 29,-16.06 54.92,-36.52 77.68,-61.39 15.57,-16.58 33.69,-40.44 54.39,-71.5 12.46,-20.74 21.76,-40.16 27.99,-58.27 6.23,-18.16 9.34,-40.68 9.34,-67.61l3.11 -111.9c0,-18.64 2.06,-35.75 6.19,-51.28 4.17,-15.53 10.88,-35.22 20.22,-59.04l31.06 -60.62c6.23,-11.4 10.11,-18.4 11.69,-20.99 1.54,-2.59 4.41,-6.47 8.53,-11.65 5.17,5.18 7.24,11.89 6.23,20.18l-7.77 54.39 -7.8 77.73c0,30.05 -1.78,56.45 -5.42,79.26 -3.64,22.77 -9.58,53.34 -17.87,91.68zm-198.92 -80.8c1.05,4.12 1.53,9.83 1.53,17.11 0,18.64 -6.19,36.76 -18.64,54.39 -24.87,35.22 -42.99,53.86 -54.39,55.93 -2.06,0 -6.71,-2.59 -13.99,-7.77 -23.82,-17.63 -36.23,-26.93 -37.28,-27.99 -10.35,-6.23 -19.94,-12.17 -28.75,-17.87 -8.82,-5.7 -13.71,-12.17 -14.76,-19.41l35.75 -80.8c11.41,-19.69 21.23,-35.75 29.52,-48.21 2.06,-3.11 5.17,-7.76 9.34,-13.99 6.19,3.11 12.17,5.99 17.87,8.57 5.66,2.59 10.59,5.42 14.76,8.53 21.76,16.58 36.76,29.8 45.05,39.63 8.29,9.83 12.94,20.46 13.99,31.86z"/>
   <path class="fil1" d="M5193.38 1223.78c1.82,9.06 1.13,18.8 -2.06,29.2 -3.16,10.43 -8.13,22.2 -14.92,35.3 -6.79,13.14 -16.05,25.15 -27.82,35.99 -7.24,7.24 -13.14,10.88 -17.67,10.88 -2.71,0 -8.82,-4.09 -18.32,-12.21 -9.5,-8.17 -18.11,-15.17 -25.8,-21.07 -7.68,-5.86 -14.28,-11.52 -19.69,-16.98 -5.42,-5.42 -8.13,-9.95 -8.13,-13.55 5.42,-11.77 9.5,-20.83 12.21,-27.17 9.06,-19.9 15.85,-34.37 20.34,-43.43 8.17,-13.59 16.3,-27.62 24.46,-42.1 1.82,-2.71 4.53,-6.8 8.13,-12.21 2.71,2.71 5.46,4.97 8.17,6.75 2.71,1.82 6.31,4.09 10.84,6.8 19.04,15.41 31.7,27.17 38.05,35.3 6.31,8.17 10.39,17.67 12.21,28.51zm139.84 -8.13c1.82,9.06 1.13,18.81 -2.02,29.2 -3.15,10.39 -8.17,22.16 -14.92,35.3 -6.8,13.14 -16.1,25.11 -27.86,35.99 -7.24,7.24 -13.1,10.84 -17.63,10.84 -2.71,0 -8.86,-4.04 -18.36,-12.21 -9.5,-8.13 -18.08,-15.17 -25.8,-21.03 -7.68,-5.9 -14.24,-11.57 -19.66,-16.99 -5.46,-5.42 -8.17,-9.94 -8.17,-13.59 5.42,-11.77 9.5,-20.83 12.21,-27.14 9.06,-19.94 15.85,-34.41 20.38,-43.47 8.13,-13.59 16.3,-27.62 24.43,-42.1 1.82,-2.71 4.53,-6.8 8.17,-12.21 2.71,2.71 5.42,4.97 8.13,6.79 2.71,1.82 6.35,4.08 10.88,6.79 19.01,15.37 31.66,27.14 38.01,35.3 6.35,8.13 10.44,17.63 12.21,28.51z"/>
  </g>
 </g>
</svg>
