<?xml version="1.0" encoding="utf-8"?>
<!-- Generator: Adobe Illustrator 23.0.0, SVG Export Plug-In . SVG Version: 6.00 Build 0)  -->
<svg version="1.1" id="Layer_1" xmlns="http://www.w3.org/2000/svg" xmlns:xlink="http://www.w3.org/1999/xlink" x="0px" y="0px"
	 viewBox="0 0 100 100" style="enable-background:new 0 0 0 0 ;" xml:space="preserve">
<style type="text/css">
	.st1{#00a693;}
</style>
<g id="seat_3_">
	<path class="st0" d="M38.6,63.6c-3.9,0-7.4-2.5-8.6-6.2L16,14.5c-1-3,0.7-6.2,3.7-7.2c2.9-1,6.1,0.5,7.2,3.3l3.6,9.9
		c0.3,0.9-0.1,1.8-1,2.2c-0.9,0.3-1.8-0.1-2.2-1l-3.6-9.9c-0.4-1.1-1.8-1.7-3-1.3c-1.2,0.4-1.9,1.7-1.5,3l14,42.9
		c0.8,2.3,2.9,3.9,5.4,3.9c0,0,0,0,0,0c0.9,0,1.7,0.7,1.7,1.7C40.3,62.8,39.5,63.6,38.6,63.6C38.6,63.6,38.6,63.6,38.6,63.6z"/>
	<path class="st0" d="M44.4,63.6c-0.9,0-1.7-0.7-1.7-1.7s0.7-1.7,1.7-1.7l4.3,0c0.9,0,1.7,0.7,1.7,1.7c0,0.9-0.7,1.7-1.7,1.7
		L44.4,63.6C44.4,63.6,44.4,63.6,44.4,63.6z"/>
	<path class="st0" d="M82.6,89.2c-0.7,0-1.3-0.4-1.6-1.1l-7.9-21.5c-0.7-1.9-2.5-3.2-4.6-3.2c0,0,0,0,0,0l-13.4,0.1c0,0,0,0,0,0
		c-0.9,0-1.7-0.7-1.7-1.7c0-0.9,0.7-1.7,1.7-1.7l13.4-0.1c0,0,0,0,0,0c3.5,0,6.6,2.2,7.8,5.4L84.2,87c0.3,0.9-0.1,1.8-1,2.2
		C83,89.2,82.8,89.2,82.6,89.2z"/>
	<path class="st1" d="M63,43.6H37c-0.9,0-1.7-0.8-1.7-1.7s0.8-1.7,1.7-1.7h26c0.9,0,1.7,0.8,1.7,1.7S63.9,43.6,63,43.6z"/>
	<path class="st0" d="M70.5,93h-34c-2,0-3.8-0.9-5-2.4c-1.2-1.5-1.6-3.5-1.1-5.4l4-14.4c0.2-0.9,1.2-1.4,2.1-1.2
		c0.9,0.2,1.4,1.2,1.2,2.1l-4,14.3c-0.2,0.8,0,1.7,0.5,2.4c0.6,0.7,1.4,1.1,2.3,1.1h34c0.9,0,1.7,0.8,1.7,1.7
		C72.1,92.2,71.4,93,70.5,93z"/>
</g>
</svg>
